<svg t="1651664809171" class="icon" viewBox="0 0 1024 1024" version="1.1" xmlns="http://www.w3.org/2000/svg" p-id="2127" width="200" height="200"><path d="M534.755556 170.666667a310.613333 310.613333 0 0 1 217.543111 88.064c104.106667 101.376 119.182222 263.395556 36.693333 380.984889a306.232889 306.232889 0 0 1-137.159111 108.373333l-98.019556 97.678222a28.103111 28.103111 0 0 1-38.001777 0.341333l-0.341334-0.341333-0.227555-0.398222-97.621334-97.28a301.909333 301.909333 0 0 1-136.760889-108.373333C197.973333 522.183111 213.048889 360.106667 317.155556 258.730667A310.670222 310.670222 0 0 1 534.698667 170.666667z m0 148.48a156.728889 156.728889 0 0 0-109.283556 44.145777 148.650667 148.650667 0 0 0-45.283556 106.552889c0 41.358222 17.408 79.132444 45.283556 106.382223a156.216889 156.216889 0 0 0 109.226667 44.316444 155.306667 155.306667 0 0 0 109.112889-44.373333c28.103111-27.192889 45.511111-64.967111 45.511111-106.382223a147.968 147.968 0 0 0-45.511111-106.496 155.818667 155.818667 0 0 0-109.112889-44.202666z" p-id="2128"></path></svg>