<svg t="1651151657291" class="icon" viewBox="0 0 1088 1024" version="1.1" xmlns="http://www.w3.org/2000/svg" p-id="11790" width="200" height="200"><path d="M280.64 54.656l512.064 0.064c4.48 0 8.832 0.192 13.184 0.64l3.776 0.256 1.92 0.32c39.04 4.864 74.496 24.832 99.072 55.552 1.472 1.792 2.56 3.776 3.456 5.824l4.8 6.592 87.296 124.608 4.8 7.296a164.864 164.864 0 0 1-78.72 240.448l-0.064 392.704c0 60.096-46.784 109.312-105.92 113.152l-7.488 0.192H229.184c-60.096 0-109.312-46.72-113.152-105.92l-0.192-7.424V492.672A164.864 164.864 0 0 1 37.12 252.288l4.736-7.36 84.736-121.024A164.8 164.8 0 0 1 280.64 54.656z m58.688 340.16l-27.392 39.232a164.8 164.8 0 0 1-150.784 69.568v385.28c0 35.392 27.008 64.448 61.44 67.776l6.592 0.32h589.632c35.392 0 64.448-27.008 67.712-61.504l0.32-6.528V507.2a164.864 164.864 0 0 1-144-60.544l-6.72-8.96-27.712-39.68c-27.776 63.232-100.096 107.456-183.872 107.456-85.12 0-158.528-45.76-185.216-110.656z m320.768 392.512c12.48 0 22.656 14.336 22.656 32 0 15.744-8 28.8-18.56 31.488l-4.096 0.512H387.968c-12.544 0-22.72-14.336-22.72-32 0-15.68 8.064-28.8 18.624-31.488l4.096-0.512h272.128zM277.952 100.032h-21.504c-22.784 0-44.416 7.232-62.336 20.416l-3.584 1.92c-7.936 5.888-15.232 12.8-21.632 20.736l-5.12 6.784-84.8 121.024A119.488 119.488 0 0 0 270.272 414.08l4.48-6.08 56.32-80.384a22.656 22.656 0 0 1 18.688-9.6l1.472-0.064c12.544 0 22.72 10.112 22.72 22.656 0 64.896 66.56 119.488 150.592 119.488 84.096 0 150.656-54.592 150.656-119.488a22.656 22.656 0 0 1 44.8-4.8l0.64 0.768 52.608 75.072 4.48 6.016a119.488 119.488 0 0 0 196.864-134.4l-5.568-8.704-87.232-124.672-5.376-7.04c-16.384-20.096-38.464-33.984-63.168-40.256l-9.152-1.92-1.088-0.064a106.496 106.496 0 0 0-2.24-0.192l-8.064-0.32H286.208a22.656 22.656 0 0 1-7.04 0.128l-1.28-0.192z" p-id="11791"></path></svg>